<?xml version="1.0" standalone="no"?>
<!DOCTYPE svg PUBLIC "-//W3C//DTD SVG 20010904//EN"
 "http://www.w3.org/TR/2001/REC-SVG-20010904/DTD/svg10.dtd">
<svg version="1.0" xmlns="http://www.w3.org/2000/svg"
 width="225.000000pt" height="225.000000pt" viewBox="0 0 225.000000 225.000000"
 preserveAspectRatio="xMidYMid meet">

<g transform="translate(0.000000,225.000000) scale(0.100000,-0.100000)"
fill="#000000" stroke="none">
<path d="M420 1875 l0 -65 -60 0 -60 0 0 -60 0 -60 -65 0 -65 0 0 -250 0 -250
65 0 65 0 0 -65 0 -65 60 0 60 0 0 -60 0 -60 65 0 65 0 0 -65 0 -65 65 0 65 0
0 -65 0 -65 60 0 60 0 0 -60 0 -60 65 0 65 0 0 -65 0 -65 65 0 65 0 0 -60 0
-60 60 0 60 0 0 60 0 60 65 0 65 0 0 65 0 65 60 0 60 0 0 60 0 60 65 0 65 0 0
65 0 65 65 0 65 0 0 65 0 65 60 0 60 0 0 60 0 60 65 0 65 0 0 65 0 65 60 0 60
0 0 250 0 250 -60 0 -60 0 0 60 0 59 -62 3 -63 3 -3 63 -3 62 -244 0 -244 0
-3 -62 -3 -63 -62 -3 -63 -3 0 -59 0 -60 -65 0 -65 0 0 60 0 59 -62 3 -63 3
-3 63 -3 62 -254 0 -255 0 0 -65z m400 -250 l0 -65 -65 0 -65 0 0 -65 0 -65
-60 0 -60 0 0 -60 0 -60 -70 0 -71 0 3 128 3 127 63 3 62 3 0 59 0 60 130 0
130 0 0 -65z"/>
</g>
</svg>
